<?xml version="1.0" encoding="UTF-8" standalone="no"?>
<!-- Created with Inkscape (http://www.inkscape.org/) -->

<svg width="512" height="512" viewBox="0 0 170.66667 170.66667" version="1.1" id="svg1" inkscape:version="1.4.3 (0d15f75, 2025-12-25)" sodipodi:docname="0xFF-dark.svg" inkscape:export-filename="Icon dark.png" inkscape:export-xdpi="96" inkscape:export-ydpi="96" xml:space="preserve" inkscape:export-batch-path="C:\Users\Kotlet\Pictures\0xFF\Banner" inkscape:export-batch-name="Banner white"
  xmlns:inkscape="http://www.inkscape.org/namespaces/inkscape"
  xmlns:sodipodi="http://sodipodi.sourceforge.net/DTD/sodipodi-0.dtd"
  xmlns:xlink="http://www.w3.org/1999/xlink"
  xmlns="http://www.w3.org/2000/svg"
  xmlns:svg="http://www.w3.org/2000/svg"
  xmlns:rdf="http://www.w3.org/1999/02/22-rdf-syntax-ns#"
  xmlns:cc="http://creativecommons.org/ns#"
  xmlns:dc="http://purl.org/dc/elements/1.1/">
  <title id="title4">0xFF Icon dark</title>
  <sodipodi:namedview id="namedview1" pagecolor="#01100b" bordercolor="#ffffff" borderopacity="0.24705882" inkscape:showpageshadow="2" inkscape:pageopacity="0.0" inkscape:pagecheckerboard="0" inkscape:deskcolor="#000000" inkscape:document-units="px" inkscape:zoom="0.94421206" inkscape:cx="258.41653" inkscape:cy="216.5827" inkscape:window-width="1920" inkscape:window-height="988" inkscape:window-x="-9" inkscape:window-y="-9" inkscape:window-maximized="1" inkscape:current-layer="Logo" showguides="true" inkscape:export-bgcolor="#00000000" />
  <defs id="defs1">
    <linearGradient id="linearGradient3" inkscape:collect="always" inkscape:label="Top glow">
      <stop style="stop-color:#ffffff;stop-opacity:0;" offset="0" id="stop3" />
      <stop style="stop-color:#ffffff;stop-opacity:1;" offset="1" id="stop2" />
    </linearGradient>

    <linearGradient id="linearGradient8" inkscape:collect="always" inkscape:label="Main">
      <stop style="stop-color:#12d7c0;stop-opacity:1;" offset="0" id="stop13" />
      <stop style="stop-color:#007f6c;stop-opacity:0.75356418;" offset="0.47474378" id="stop14" />
      <stop style="stop-color:#113f34;stop-opacity:1;" offset="0.55819911" id="stop16" />
      <stop style="stop-color:#067e6f;stop-opacity:1;" offset="1" id="stop8" />
    </linearGradient>
    <inkscape:path-effect effect="fillet_chamfer" id="path-effect14" is_visible="true" lpeversion="1" nodesatellites_param="F,0,0,1,0,1.6666667,0,1 @ F,0,0,1,0,1.6666667,0,1 @ F,0,0,1,0,1.6666667,0,1 @ F,0,0,1,0,1.6666667,0,1 @ F,0,0,1,0,1.6666667,0,1 @ F,0,0,1,0,1.6666667,0,1 @ F,0,0,1,0,1.6666667,0,1 @ F,0,0,1,0,1.6666667,0,1 @ F,0,0,1,0,1.6666667,0,1 @ F,0,0,1,0,1.6666667,0,1 @ F,0,0,1,0,1.6666667,0,1 @ F,0,0,1,0,1.6666667,0,1 @ F,0,0,1,0,1.6666667,0,1 @ F,0,0,1,0,1.6666667,0,1 @ F,0,0,1,0,1.6666667,0,1 @ F,0,0,1,0,1.6666667,0,1 @ F,0,0,1,0,1.6666667,0,1 @ F,0,0,1,0,1.6666667,0,1 @ F,0,0,1,0,1.6666667,0,1 @ F,0,0,1,0,1.6666667,0,1 @ F,0,0,1,0,1.6666667,0,1 @ F,0,0,1,0,1.6666667,0,1 @ F,0,0,1,0,1.6666667,0,1 @ F,0,0,1,0,1.6666667,0,1 @ F,0,0,1,0,1.6666667,0,1 @ F,0,0,1,0,1.6666667,0,1 @ F,0,0,1,0,1.6666667,0,1 @ F,0,0,1,0,1.6666667,0,1 @ F,0,0,1,0,1.6666667,0,1 @ F,0,0,1,0,1.6666667,0,1 @ F,0,0,1,0,1.6666667,0,1 @ F,0,0,1,0,1.6666667,0,1 | F,0,0,1,0,1.6666667,0,1 @ F,0,0,1,0,1.6666667,0,1 @ F,0,0,1,0,1.6666667,0,1 @ F,0,0,1,0,1.6666667,0,1 @ F,0,0,1,0,1.6666667,0,1 @ F,0,0,1,0,1.6666667,0,1 @ F,0,0,1,0,1.6666667,0,1 @ F,0,0,1,0,1.6666667,0,1 @ F,0,0,1,0,1.6666667,0,1 @ F,0,0,1,0,1.6666667,0,1 @ F,0,0,1,0,1.6666667,0,1 @ F,0,0,1,0,1.6666667,0,1 @ F,0,0,1,0,1.6666667,0,1 @ F,0,0,1,0,1.6666667,0,1 @ F,0,0,1,0,1.6666667,0,1 @ F,0,0,1,0,1.6666667,0,1 @ F,0,0,1,0,1.6666667,0,1 @ F,0,0,1,0,1.6666667,0,1 @ F,0,0,1,0,1.6666667,0,1 @ F,0,0,1,0,1.6666667,0,1" radius="5" unit="px" method="auto" mode="F" chamfer_steps="1" flexible="false" use_knot_distance="true" apply_no_radius="true" apply_with_radius="true" only_selected="false" hide_knots="false" />
    <linearGradient id="linearGradient59" inkscape:collect="always" inkscape:label="Main glow">
      <stop style="stop-color:#ffffff;stop-opacity:1;" offset="0" id="stop58" />
      <stop style="stop-color:#ffffff;stop-opacity:0;" offset="1" id="stop59" />
    </linearGradient>
    <inkscape:path-effect effect="fillet_chamfer" id="path-effect57" is_visible="true" lpeversion="1" nodesatellites_param="F,0,0,1,0,1.6666667,0,1 @ F,0,0,1,0,1.6666667,0,1 @ F,0,0,1,0,1.6666667,0,1 @ F,0,0,1,0,1.6666667,0,1 @ F,0,0,1,0,1.6666667,0,1 @ F,0,0,1,0,1.6666667,0,1 @ F,0,0,1,0,1.6666667,0,1 @ F,0,0,1,0,1.6666667,0,1 @ F,0,0,1,0,1.6666667,0,1 @ F,0,0,1,0,1.6666667,0,1 @ F,0,0,1,0,1.6666667,0,1 @ F,0,0,1,0,1.6666667,0,1 @ F,0,0,1,0,1.6666667,0,1 @ F,0,0,1,0,1.6666667,0,1 @ F,0,0,1,0,1.6666667,0,1 @ F,0,0,1,0,1.6666667,0,1 @ F,0,0,1,0,1.6666667,0,1 @ F,0,0,1,0,1.6666667,0,1 @ F,0,0,1,0,1.6666667,0,1 @ F,0,0,1,0,1.6666667,0,1 @ F,0,0,1,0,1.6666667,0,1 @ F,0,0,1,0,1.6666667,0,1 @ F,0,0,1,0,1.6666667,0,1 @ F,0,0,1,0,1.6666667,0,1 @ F,0,0,1,0,1.6666667,0,1 @ F,0,0,1,0,1.6666667,0,1 @ F,0,0,1,0,1.6666667,0,1 @ F,0,0,1,0,1.6666667,0,1 @ F,0,0,1,0,1.6666667,0,1 @ F,0,0,1,0,1.6666667,0,1 @ F,0,0,1,0,1.6666667,0,1 @ F,0,0,1,0,1.6666667,0,1 | F,0,0,1,0,1.6666667,0,1 @ F,0,0,1,0,1.6666667,0,1 @ F,0,0,1,0,1.6666667,0,1 @ F,0,0,1,0,1.6666667,0,1 @ F,0,0,1,0,1.6666667,0,1 @ F,0,0,1,0,1.6666667,0,1 @ F,0,0,1,0,1.6666667,0,1 @ F,0,0,1,0,1.6666667,0,1 @ F,0,0,1,0,1.6666667,0,1 @ F,0,0,1,0,1.6666667,0,1 @ F,0,0,1,0,1.6666667,0,1 @ F,0,0,1,0,1.6666667,0,1 @ F,0,0,1,0,1.6666667,0,1 @ F,0,0,1,0,1.6666667,0,1 @ F,0,0,1,0,1.6666667,0,1 @ F,0,0,1,0,1.6666667,0,1 @ F,0,0,1,0,1.6666667,0,1 @ F,0,0,1,0,1.6666667,0,1 @ F,0,0,1,0,1.6666667,0,1 @ F,0,0,1,0,1.6666667,0,1" radius="5" unit="px" method="auto" mode="F" chamfer_steps="1" flexible="false" use_knot_distance="true" apply_no_radius="true" apply_with_radius="true" only_selected="false" hide_knots="false" />
    <inkscape:path-effect effect="fillet_chamfer" id="path-effect53" is_visible="true" lpeversion="1" nodesatellites_param="F,0,0,1,0,1.6666667,0,1 @ F,0,0,1,0,1.6666667,0,1 @ F,0,0,1,0,1.6666667,0,1 @ F,0,0,1,0,1.6666667,0,1 @ F,0,0,1,0,1.6666667,0,1 @ F,0,0,1,0,1.6666667,0,1 @ F,0,0,1,0,1.6666667,0,1 @ F,0,0,1,0,1.6666667,0,1 @ F,0,0,1,0,1.6666667,0,1 @ F,0,0,1,0,1.6666667,0,1 @ F,0,0,1,0,1.6666667,0,1 @ F,0,0,1,0,1.6666667,0,1 @ F,0,0,1,0,1.6666667,0,1 @ F,0,0,1,0,1.6666667,0,1 @ F,0,0,1,0,1.6666667,0,1 @ F,0,0,1,0,1.6666667,0,1 @ F,0,0,1,0,1.6666667,0,1 @ F,0,0,1,0,1.6666667,0,1 @ F,0,0,1,0,1.6666667,0,1 @ F,0,0,1,0,1.6666667,0,1 @ F,0,0,1,0,1.6666667,0,1 @ F,0,0,1,0,1.6666667,0,1 @ F,0,0,1,0,1.6666667,0,1 @ F,0,0,1,0,1.6666667,0,1 @ F,0,0,1,0,1.6666667,0,1 @ F,0,0,1,0,1.6666667,0,1 @ F,0,0,1,0,1.6666667,0,1 @ F,0,0,1,0,1.6666667,0,1 @ F,0,0,1,0,1.6666667,0,1 @ F,0,0,1,0,1.6666667,0,1 @ F,0,0,1,0,1.6666667,0,1 @ F,0,0,1,0,1.6666667,0,1 | F,0,0,1,0,1.6666667,0,1 @ F,0,0,1,0,1.6666667,0,1 @ F,0,0,1,0,1.6666667,0,1 @ F,0,0,1,0,1.6666667,0,1 @ F,0,0,1,0,1.6666667,0,1 @ F,0,0,1,0,1.6666667,0,1 @ F,0,0,1,0,1.6666667,0,1 @ F,0,0,1,0,1.6666667,0,1 @ F,0,0,1,0,1.6666667,0,1 @ F,0,0,1,0,1.6666667,0,1 @ F,0,0,1,0,1.6666667,0,1 @ F,0,0,1,0,1.6666667,0,1 @ F,0,0,1,0,1.6666667,0,1 @ F,0,0,1,0,1.6666667,0,1 @ F,0,0,1,0,1.6666667,0,1 @ F,0,0,1,0,1.6666667,0,1 @ F,0,0,1,0,1.6666667,0,1 @ F,0,0,1,0,1.6666667,0,1 @ F,0,0,1,0,1.6666667,0,1 @ F,0,0,1,0,1.6666667,0,1" radius="5" unit="px" method="auto" mode="F" chamfer_steps="1" flexible="false" use_knot_distance="true" apply_no_radius="true" apply_with_radius="true" only_selected="false" hide_knots="false" />
    <inkscape:path-effect effect="fillet_chamfer" id="path-effect47" is_visible="true" lpeversion="1" nodesatellites_param="F,0,0,1,0,1.6666667,0,1 @ F,0,0,1,0,1.6666667,0,1 @ F,0,0,1,0,1.6666667,0,1 @ F,0,0,1,0,1.6666667,0,1 @ F,0,0,1,0,1.6666667,0,1 @ F,0,0,1,0,1.6666667,0,1 @ F,0,0,1,0,1.6666667,0,1 @ F,0,0,1,0,1.6666667,0,1 @ F,0,0,1,0,1.6666667,0,1 @ F,0,0,1,0,1.6666667,0,1 @ F,0,0,1,0,1.6666667,0,1 @ F,0,0,1,0,1.6666667,0,1 @ F,0,0,1,0,1.6666667,0,1 @ F,0,0,1,0,1.6666667,0,1 @ F,0,0,1,0,1.6666667,0,1 @ F,0,0,1,0,1.6666667,0,1 @ F,0,0,1,0,1.6666667,0,1 @ F,0,0,1,0,1.6666667,0,1 @ F,0,0,1,0,1.6666667,0,1 @ F,0,0,1,0,1.6666667,0,1 @ F,0,0,1,0,1.6666667,0,1 @ F,0,0,1,0,1.6666667,0,1 @ F,0,0,1,0,1.6666667,0,1 @ F,0,0,1,0,1.6666667,0,1 @ F,0,0,1,0,1.6666667,0,1 @ F,0,0,1,0,1.6666667,0,1 @ F,0,0,1,0,1.6666667,0,1 @ F,0,0,1,0,1.6666667,0,1 @ F,0,0,1,0,1.6666667,0,1 @ F,0,0,1,0,1.6666667,0,1 @ F,0,0,1,0,1.6666667,0,1 @ F,0,0,1,0,1.6666667,0,1 | F,0,0,1,0,1.6666667,0,1 @ F,0,0,1,0,1.6666667,0,1 @ F,0,0,1,0,1.6666667,0,1 @ F,0,0,1,0,1.6666667,0,1 @ F,0,0,1,0,1.6666667,0,1 @ F,0,0,1,0,1.6666667,0,1 @ F,0,0,1,0,1.6666667,0,1 @ F,0,0,1,0,1.6666667,0,1 @ F,0,0,1,0,1.6666667,0,1 @ F,0,0,1,0,1.6666667,0,1 @ F,0,0,1,0,1.6666667,0,1 @ F,0,0,1,0,1.6666667,0,1 @ F,0,0,1,0,1.6666667,0,1 @ F,0,0,1,0,1.6666667,0,1 @ F,0,0,1,0,1.6666667,0,1 @ F,0,0,1,0,1.6666667,0,1 @ F,0,0,1,0,1.6666667,0,1 @ F,0,0,1,0,1.6666667,0,1 @ F,0,0,1,0,1.6666667,0,1 @ F,0,0,1,0,1.6666667,0,1" radius="5" unit="px" method="auto" mode="F" chamfer_steps="1" flexible="false" use_knot_distance="true" apply_no_radius="true" apply_with_radius="true" only_selected="false" hide_knots="false" />
    <inkscape:path-effect effect="fillet_chamfer" id="path-effect39" is_visible="true" lpeversion="1" nodesatellites_param="F,0,0,1,0,0,0,1 @ F,0,0,1,0,0,0,1 @ F,0,0,1,0,64.784784,0,1 @ F,0,0,1,0,0,0,1 @ F,0,0,1,0,86.203454,0,1 @ F,0,0,1,0,0,0,1" radius="0" unit="px" method="auto" mode="F" chamfer_steps="1" flexible="false" use_knot_distance="true" apply_no_radius="true" apply_with_radius="true" only_selected="false" hide_knots="false" />

    <inkscape:path-effect effect="fillet_chamfer" id="path-effect25" is_visible="true" lpeversion="1" nodesatellites_param="F,0,0,1,0,1.6667,0,1 @ F,0,0,1,0,1.6667,0,1 @ F,0,0,1,0,1.6667,0,1 @ F,0,0,1,0,1.6667,0,1 @ F,0,0,1,0,1.6667,0,1 @ F,0,0,1,0,1.6667,0,1 @ F,0,0,1,0,1.6667,0,1 @ F,0,0,1,0,1.6667,0,1 @ F,0,0,1,0,1.6667,0,1 @ F,0,0,1,0,1.6667,0,1 @ F,0,0,1,0,1.6667,0,1 @ F,0,0,1,0,1.6667,0,1 @ F,0,0,1,0,1.6667,0,1 @ F,0,0,1,0,1.6667,0,1 @ F,0,0,1,0,1.6667,0,1 @ F,0,0,1,0,1.6667,0,1 @ F,0,0,1,0,1.6667,0,1 @ F,0,0,1,0,1.6667,0,1 @ F,0,0,1,0,1.6667,0,1 @ F,0,0,1,0,1.6667,0,1 @ F,0,0,1,0,1.6667,0,1 @ F,0,0,1,0,1.6667,0,1 @ F,0,0,1,0,1.6667,0,1 @ F,0,0,1,0,1.6667,0,1 @ F,0,0,1,0,1.6667,0,1 @ F,0,0,1,0,1.6667,0,1 @ F,0,0,1,0,1.6667,0,1 @ F,0,0,1,0,1.6667,0,1 @ F,0,0,1,0,1.6667,0,1 @ F,0,0,1,0,1.6667,0,1 @ F,0,0,1,0,1.6667,0,1" radius="1.6667" unit="px" method="auto" mode="F" chamfer_steps="1" flexible="false" use_knot_distance="true" apply_no_radius="true" apply_with_radius="true" only_selected="false" hide_knots="false" />
    <inkscape:path-effect effect="fillet_chamfer" id="path-effect18" is_visible="true" lpeversion="1" nodesatellites_param="" radius="0" unit="px" method="auto" mode="F" chamfer_steps="1" flexible="false" use_knot_distance="true" apply_no_radius="true" apply_with_radius="true" only_selected="false" hide_knots="false" />
    <inkscape:path-effect effect="fillet_chamfer" id="path-effect17" is_visible="true" lpeversion="1" nodesatellites_param="" radius="0" unit="px" method="auto" mode="F" chamfer_steps="1" flexible="false" use_knot_distance="true" apply_no_radius="true" apply_with_radius="true" only_selected="false" hide_knots="false" />
    <linearGradient id="swatch17" inkscape:swatch="solid">
      <stop style="stop-color:#000000;stop-opacity:1;" offset="0" id="stop17" />
    </linearGradient>
    <inkscape:path-effect effect="fillet_chamfer" id="path-effect15" is_visible="true" lpeversion="1" nodesatellites_param="F,0,0,1,0,1.6666667,0,1 @ F,0,0,1,0,1.6666667,0,1 @ F,0,0,1,0,1.6666667,0,1 @ F,0,0,1,0,1.6666667,0,1 @ F,0,0,1,0,1.6666667,0,1 @ F,0,0,1,0,1.6666667,0,1 @ F,0,0,1,0,1.6666667,0,1 @ F,0,0,1,0,1.6666667,0,1 @ F,0,0,1,0,1.6666667,0,1 @ F,0,0,1,0,1.6666667,0,1 @ F,0,0,1,0,1.6666667,0,1 @ F,0,0,1,0,1.6666667,0,1 @ F,0,0,1,0,1.6666667,0,1 @ F,0,0,1,0,1.6666667,0,1 @ F,0,0,1,0,1.6666667,0,1 @ F,0,0,1,0,1.6666667,0,1 @ F,0,0,1,0,1.6666667,0,1 @ F,0,0,1,0,1.6666667,0,1 @ F,0,0,1,0,1.6666667,0,1 @ F,0,0,1,0,1.6666667,0,1 @ F,0,0,1,0,1.6666667,0,1 @ F,0,0,1,0,1.6666667,0,1 @ F,0,0,1,0,1.6666667,0,1 @ F,0,0,1,0,1.6666667,0,1 @ F,0,0,1,0,1.6666667,0,1 @ F,0,0,1,0,1.6666667,0,1 @ F,0,0,1,0,1.6666667,0,1 @ F,0,0,1,0,1.6666667,0,1 @ F,0,0,1,0,1.6666667,0,1 @ F,0,0,1,0,1.6666667,0,1 @ F,0,0,1,0,1.6666667,0,1 @ F,0,0,1,0,1.6666667,0,1 | F,0,0,1,0,1.6666667,0,1 @ F,0,0,1,0,1.6666667,0,1 @ F,0,0,1,0,1.6666667,0,1 @ F,0,0,1,0,1.6666667,0,1 @ F,0,0,1,0,1.6666667,0,1 @ F,0,0,1,0,1.6666667,0,1 @ F,0,0,1,0,1.6666667,0,1 @ F,0,0,1,0,1.6666667,0,1 @ F,0,0,1,0,1.6666667,0,1 @ F,0,0,1,0,1.6666667,0,1 @ F,0,0,1,0,1.6666667,0,1 @ F,0,0,1,0,1.6666667,0,1 @ F,0,0,1,0,1.6666667,0,1 @ F,0,0,1,0,1.6666667,0,1 @ F,0,0,1,0,1.6666667,0,1 @ F,0,0,1,0,1.6666667,0,1 @ F,0,0,1,0,1.6666667,0,1 @ F,0,0,1,0,1.6666667,0,1 @ F,0,0,1,0,1.6666667,0,1 @ F,0,0,1,0,1.6666667,0,1" radius="5" unit="px" method="auto" mode="F" chamfer_steps="1" flexible="false" use_knot_distance="true" apply_no_radius="true" apply_with_radius="true" only_selected="false" hide_knots="false" />
    <inkscape:path-effect effect="fillet_chamfer" id="path-effect12" is_visible="true" lpeversion="1" nodesatellites_param="F,0,0,1,0,1.6666667,0,1 @ F,0,0,1,0,1.6666667,0,1 @ F,0,0,1,0,1.6666667,0,1 @ F,0,0,1,0,1.6666667,0,1 @ F,0,0,1,0,1.6666667,0,1 @ F,0,0,1,0,1.6666667,0,1 @ F,0,0,1,0,1.6666667,0,1 @ F,0,0,1,0,1.6666667,0,1 @ F,0,0,1,0,1.6666667,0,1 @ F,0,0,1,0,1.6666667,0,1 @ F,0,0,1,0,1.6666667,0,1 @ F,0,0,1,0,1.6666667,0,1 @ F,0,0,1,0,1.6666667,0,1 @ F,0,0,1,0,1.6666667,0,1 @ F,0,0,1,0,1.6666667,0,1 @ F,0,0,1,0,1.6666667,0,1 @ F,0,0,1,0,1.6666667,0,1 @ F,0,0,1,0,1.6666667,0,1 @ F,0,0,1,0,1.6666667,0,1 @ F,0,0,1,0,1.6666667,0,1 @ F,0,0,1,0,1.6666667,0,1 @ F,0,0,1,0,1.6666667,0,1 @ F,0,0,1,0,1.6666667,0,1 @ F,0,0,1,0,1.6666667,0,1 @ F,0,0,1,0,1.6666667,0,1 @ F,0,0,1,0,1.6666667,0,1 @ F,0,0,1,0,1.6666667,0,1 @ F,0,0,1,0,1.6666667,0,1 @ F,0,0,1,0,1.6666667,0,1 @ F,0,0,1,0,1.6666667,0,1 @ F,0,0,1,0,1.6666667,0,1 @ F,0,0,1,0,1.6666667,0,1 | F,0,0,1,0,1.6666667,0,1 @ F,0,0,1,0,1.6666667,0,1 @ F,0,0,1,0,1.6666667,0,1 @ F,0,0,1,0,1.6666667,0,1 @ F,0,0,1,0,1.6666667,0,1 @ F,0,0,1,0,1.6666667,0,1 @ F,0,0,1,0,1.6666667,0,1 @ F,0,0,1,0,1.6666667,0,1 @ F,0,0,1,0,1.6666667,0,1 @ F,0,0,1,0,1.6666667,0,1 @ F,0,0,1,0,1.6666667,0,1 @ F,0,0,1,0,1.6666667,0,1 @ F,0,0,1,0,1.6666667,0,1 @ F,0,0,1,0,1.6666667,0,1 @ F,0,0,1,0,1.6666667,0,1 @ F,0,0,1,0,1.6666667,0,1 @ F,0,0,1,0,1.6666667,0,1 @ F,0,0,1,0,1.6666667,0,1 @ F,0,0,1,0,1.6666667,0,1 @ F,0,0,1,0,1.6666667,0,1" radius="5" unit="px" method="auto" mode="F" chamfer_steps="1" flexible="false" use_knot_distance="true" apply_no_radius="true" apply_with_radius="true" only_selected="false" hide_knots="false" />
    <inkscape:path-effect effect="fillet_chamfer" id="path-effect9" is_visible="true" lpeversion="1" nodesatellites_param="F,0,0,1,0,1.6666667,0,1 @ F,0,0,1,0,1.6666667,0,1 @ F,0,0,1,0,1.6666667,0,1 @ F,0,0,1,0,1.6666667,0,1 @ F,0,0,1,0,1.6666667,0,1 @ F,0,0,1,0,1.6666667,0,1 @ F,0,0,1,0,1.6666667,0,1 @ F,0,0,1,0,1.6666667,0,1 @ F,0,0,1,0,1.6666667,0,1 @ F,0,0,1,0,1.6666667,0,1 @ F,0,0,1,0,1.6666667,0,1 @ F,0,0,1,0,1.6666667,0,1 @ F,0,0,1,0,1.6666667,0,1 @ F,0,0,1,0,1.6666667,0,1 @ F,0,0,1,0,1.6666667,0,1 @ F,0,0,1,0,1.6666667,0,1 @ F,0,0,1,0,1.6666667,0,1 @ F,0,0,1,0,1.6666667,0,1 @ F,0,0,1,0,1.6666667,0,1 @ F,0,0,1,0,1.6666667,0,1 @ F,0,0,1,0,1.6666667,0,1 @ F,0,0,1,0,1.6666667,0,1 @ F,0,0,1,0,1.6666667,0,1 @ F,0,0,1,0,1.6666667,0,1 @ F,0,0,1,0,1.6666667,0,1 @ F,0,0,1,0,1.6666667,0,1 @ F,0,0,1,0,1.6666667,0,1 @ F,0,0,1,0,1.6666667,0,1 @ F,0,0,1,0,1.6666667,0,1 @ F,0,0,1,0,1.6666667,0,1 @ F,0,0,1,0,1.6666667,0,1 @ F,0,0,1,0,1.6666667,0,1 | F,0,0,1,0,1.6666667,0,1 @ F,0,0,1,0,1.6666667,0,1 @ F,0,0,1,0,1.6666667,0,1 @ F,0,0,1,0,1.6666667,0,1 @ F,0,0,1,0,1.6666667,0,1 @ F,0,0,1,0,1.6666667,0,1 @ F,0,0,1,0,1.6666667,0,1 @ F,0,0,1,0,1.6666667,0,1 @ F,0,0,1,0,1.6666667,0,1 @ F,0,0,1,0,1.6666667,0,1 @ F,0,0,1,0,1.6666667,0,1 @ F,0,0,1,0,1.6666667,0,1 @ F,0,0,1,0,1.6666667,0,1 @ F,0,0,1,0,1.6666667,0,1 @ F,0,0,1,0,1.6666667,0,1 @ F,0,0,1,0,1.6666667,0,1 @ F,0,0,1,0,1.6666667,0,1 @ F,0,0,1,0,1.6666667,0,1 @ F,0,0,1,0,1.6666667,0,1 @ F,0,0,1,0,1.6666667,0,1" radius="5" unit="px" method="auto" mode="F" chamfer_steps="1" flexible="false" use_knot_distance="true" apply_no_radius="true" apply_with_radius="true" only_selected="false" hide_knots="false" />
    <inkscape:path-effect effect="fillet_chamfer" id="path-effect4" is_visible="true" lpeversion="1" nodesatellites_param="F,0,0,1,0,1.6666667,0,1 @ F,0,0,1,0,1.6666667,0,1 @ F,0,0,1,0,1.6666667,0,1 @ F,0,0,1,0,1.6666667,0,1 @ F,0,0,1,0,1.6666667,0,1 @ F,0,0,1,0,1.6666667,0,1 @ F,0,0,1,0,1.6666667,0,1 @ F,0,0,1,0,1.6666667,0,1 @ F,0,0,1,0,1.6666667,0,1 @ F,0,0,1,0,1.6666667,0,1 @ F,0,0,1,0,1.6666667,0,1 @ F,0,0,1,0,1.6666667,0,1 @ F,0,0,1,0,1.6666667,0,1 @ F,0,0,1,0,1.6666667,0,1 @ F,0,0,1,0,1.6666667,0,1 @ F,0,0,1,0,1.6666667,0,1 @ F,0,0,1,0,1.6666667,0,1 @ F,0,0,1,0,1.6666667,0,1 @ F,0,0,1,0,1.6666667,0,1 @ F,0,0,1,0,1.6666667,0,1 @ F,0,0,1,0,1.6666667,0,1 @ F,0,0,1,0,1.6666667,0,1 @ F,0,0,1,0,1.6666667,0,1 @ F,0,0,1,0,1.6666667,0,1 @ F,0,0,1,0,1.6666667,0,1 @ F,0,0,1,0,1.6666667,0,1 @ F,0,0,1,0,1.6666667,0,1 @ F,0,0,1,0,1.6666667,0,1 @ F,0,0,1,0,1.6666667,0,1 @ F,0,0,1,0,1.6666667,0,1 @ F,0,0,1,0,1.6666667,0,1 @ F,0,0,1,0,1.6666667,0,1 | F,0,0,1,0,1.6666667,0,1 @ F,0,0,1,0,1.6666667,0,1 @ F,0,0,1,0,1.6666667,0,1 @ F,0,0,1,0,1.6666667,0,1 @ F,0,0,1,0,1.6666667,0,1 @ F,0,0,1,0,1.6666667,0,1 @ F,0,0,1,0,1.6666667,0,1 @ F,0,0,1,0,1.6666667,0,1 @ F,0,0,1,0,1.6666667,0,1 @ F,0,0,1,0,1.6666667,0,1 @ F,0,0,1,0,1.6666667,0,1 @ F,0,0,1,0,1.6666667,0,1 @ F,0,0,1,0,1.6666667,0,1 @ F,0,0,1,0,1.6666667,0,1 @ F,0,0,1,0,1.6666667,0,1 @ F,0,0,1,0,1.6666667,0,1 @ F,0,0,1,0,1.6666667,0,1 @ F,0,0,1,0,1.6666667,0,1 @ F,0,0,1,0,1.6666667,0,1 @ F,0,0,1,0,1.6666667,0,1" radius="5" unit="px" method="auto" mode="F" chamfer_steps="1" flexible="false" use_knot_distance="true" apply_no_radius="true" apply_with_radius="true" only_selected="false" hide_knots="false" />
    <inkscape:path-effect effect="fillet_chamfer" id="path-effect2" is_visible="true" lpeversion="1" nodesatellites_param="F,0,0,1,0,1.6666667,0,1 @ F,0,0,1,0,1.6666667,0,1 @ F,0,0,1,0,1.6666667,0,1 @ F,0,0,1,0,1.6666667,0,1 @ F,0,0,1,0,1.6666667,0,1 @ F,0,0,1,0,1.6666667,0,1 @ F,0,0,1,0,1.6666667,0,1 @ F,0,0,1,0,1.6666667,0,1 @ F,0,0,1,0,1.6666667,0,1 @ F,0,0,1,0,1.6666667,0,1 @ F,0,0,1,0,1.6666667,0,1 @ F,0,0,1,0,1.6666667,0,1 @ F,0,0,1,0,1.6666667,0,1 @ F,0,0,1,0,1.6666667,0,1 @ F,0,0,1,0,1.6666667,0,1 @ F,0,0,1,0,1.6666667,0,1 @ F,0,0,1,0,1.6666667,0,1 @ F,0,0,1,0,1.6666667,0,1 @ F,0,0,1,0,1.6666667,0,1 @ F,0,0,1,0,1.6666667,0,1 @ F,0,0,1,0,1.6666667,0,1 @ F,0,0,1,0,1.6666667,0,1 @ F,0,0,1,0,1.6666667,0,1 @ F,0,0,1,0,1.6666667,0,1 @ F,0,0,1,0,1.6666667,0,1 @ F,0,0,1,0,1.6666667,0,1 @ F,0,0,1,0,1.6666667,0,1 @ F,0,0,1,0,1.6666667,0,1 @ F,0,0,1,0,1.6666667,0,1 @ F,0,0,1,0,1.6666667,0,1 @ F,0,0,1,0,1.6666667,0,1 @ F,0,0,1,0,1.6666667,0,1 | F,0,0,1,0,1.6666667,0,1 @ F,0,0,1,0,1.6666667,0,1 @ F,0,0,1,0,1.6666667,0,1 @ F,0,0,1,0,1.6666667,0,1 @ F,0,0,1,0,1.6666667,0,1 @ F,0,0,1,0,1.6666667,0,1 @ F,0,0,1,0,1.6666667,0,1 @ F,0,0,1,0,1.6666667,0,1 @ F,0,0,1,0,1.6666667,0,1 @ F,0,0,1,0,1.6666667,0,1 @ F,0,0,1,0,1.6666667,0,1 @ F,0,0,1,0,1.6666667,0,1 @ F,0,0,1,0,1.6666667,0,1 @ F,0,0,1,0,1.6666667,0,1 @ F,0,0,1,0,1.6666667,0,1 @ F,0,0,1,0,1.6666667,0,1 @ F,0,0,1,0,1.6666667,0,1 @ F,0,0,1,0,1.6666667,0,1 @ F,0,0,1,0,1.6666667,0,1 @ F,0,0,1,0,1.6666667,0,1" radius="5" unit="px" method="auto" mode="F" chamfer_steps="1" flexible="false" use_knot_distance="true" apply_no_radius="true" apply_with_radius="true" only_selected="false" hide_knots="false" />
    <inkscape:path-effect effect="fillet_chamfer" id="path-effect23" is_visible="true" lpeversion="1" nodesatellites_param="F,0,0,1,0,0,0,1 @ F,0,0,1,0,3.3333334,0,1 @ F,0,0,1,0,0,0,1 @ F,0,0,1,0,3.3333334,0,1 @ F,0,0,1,0,0,0,1 @ F,0,0,1,0,3.3333334,0,1 @ F,0,0,1,0,0,0,1 @ F,0,0,1,0,3.3333334,0,1" radius="10" unit="px" method="auto" mode="F" chamfer_steps="1" flexible="false" use_knot_distance="true" apply_no_radius="true" apply_with_radius="true" only_selected="false" hide_knots="false" />
    <inkscape:path-effect effect="fillet_chamfer" id="path-effect10" is_visible="true" lpeversion="1" nodesatellites_param="F,0,0,1,0,1.6666667,0,1 @ F,0,0,1,0,1.6666667,0,1 @ F,0,0,1,0,1.6666667,0,1 @ F,0,0,1,0,1.6666667,0,1 @ F,0,0,1,0,1.6666667,0,1 @ F,0,0,1,0,1.6666667,0,1 @ F,0,0,1,0,1.6666667,0,1 @ F,0,0,1,0,1.6666667,0,1 @ F,0,0,1,0,1.6666667,0,1 @ F,0,0,1,0,1.6666667,0,1 @ F,0,0,1,0,1.6666667,0,1 @ F,0,0,1,0,1.6666667,0,1 @ F,0,0,1,0,1.6666667,0,1 @ F,0,0,1,0,1.6666667,0,1 @ F,0,0,1,0,1.6666667,0,1 @ F,0,0,1,0,1.6666667,0,1 @ F,0,0,1,0,1.6666667,0,1 @ F,0,0,1,0,1.6666667,0,1 @ F,0,0,1,0,1.6666667,0,1 @ F,0,0,1,0,1.6666667,0,1 @ F,0,0,1,0,1.6666667,0,1 @ F,0,0,1,0,1.6666667,0,1 @ F,0,0,1,0,1.6666667,0,1 @ F,0,0,1,0,1.6666667,0,1 @ F,0,0,1,0,1.6666667,0,1 @ F,0,0,1,0,1.6666667,0,1 @ F,0,0,1,0,1.6666667,0,1 @ F,0,0,1,0,1.6666667,0,1 @ F,0,0,1,0,1.6666667,0,1 @ F,0,0,1,0,1.6666667,0,1 @ F,0,0,1,0,1.6666667,0,1 @ F,0,0,1,0,1.6666667,0,1 | F,0,0,1,0,1.6666667,0,1 @ F,0,0,1,0,1.6666667,0,1 @ F,0,0,1,0,1.6666667,0,1 @ F,0,0,1,0,1.6666667,0,1 @ F,0,0,1,0,1.6666667,0,1 @ F,0,0,1,0,1.6666667,0,1 @ F,0,0,1,0,1.6666667,0,1 @ F,0,0,1,0,1.6666667,0,1 @ F,0,0,1,0,1.6666667,0,1 @ F,0,0,1,0,1.6666667,0,1 @ F,0,0,1,0,1.6666667,0,1 @ F,0,0,1,0,1.6666667,0,1 @ F,0,0,1,0,1.6666667,0,1 @ F,0,0,1,0,1.6666667,0,1 @ F,0,0,1,0,1.6666667,0,1 @ F,0,0,1,0,1.6666667,0,1 @ F,0,0,1,0,1.6666667,0,1 @ F,0,0,1,0,1.6666667,0,1 @ F,0,0,1,0,1.6666667,0,1 @ F,0,0,1,0,1.6666667,0,1" radius="5" unit="px" method="auto" mode="F" chamfer_steps="1" flexible="false" use_knot_distance="true" apply_no_radius="true" apply_with_radius="true" only_selected="false" hide_knots="false" />
    <inkscape:path-effect effect="fillet_chamfer" id="path-effect7" is_visible="true" lpeversion="1" nodesatellites_param="F,0,0,1,0,1.6666667,0,1 @ F,0,0,1,0,1.6666667,0,1 @ F,0,0,1,0,1.6666667,0,1 @ F,0,0,1,0,1.6666667,0,1 @ F,0,0,1,0,1.6666667,0,1 @ F,0,0,1,0,1.6666667,0,1 @ F,0,0,1,0,1.6666667,0,1 @ F,0,0,1,0,1.6666667,0,1 @ F,0,0,1,0,1.6666667,0,1 @ F,0,0,1,0,1.6666667,0,1 @ F,0,0,1,0,1.6666667,0,1 @ F,0,0,1,0,1.6666667,0,1 @ F,0,0,1,0,1.6666667,0,1 @ F,0,0,1,0,1.6666667,0,1 @ F,0,0,1,0,1.6666667,0,1 @ F,0,0,1,0,1.6666667,0,1 @ F,0,0,1,0,1.6666667,0,1 @ F,0,0,1,0,1.6666667,0,1 @ F,0,0,1,0,1.6666667,0,1 @ F,0,0,1,0,1.6666667,0,1 @ F,0,0,1,0,1.6666667,0,1 @ F,0,0,1,0,1.6666667,0,1 @ F,0,0,1,0,1.6666667,0,1 @ F,0,0,1,0,1.6666667,0,1 @ F,0,0,1,0,1.6666667,0,1 @ F,0,0,1,0,1.6666667,0,1 @ F,0,0,1,0,1.6666667,0,1 @ F,0,0,1,0,1.6666667,0,1 @ F,0,0,1,0,1.6666667,0,1 @ F,0,0,1,0,1.6666667,0,1 @ F,0,0,1,0,1.6666667,0,1 @ F,0,0,1,0,1.6666667,0,1 | F,0,0,1,0,1.6666667,0,1 @ F,0,0,1,0,1.6666667,0,1 @ F,0,0,1,0,1.6666667,0,1 @ F,0,0,1,0,1.6666667,0,1 @ F,0,0,1,0,1.6666667,0,1 @ F,0,0,1,0,1.6666667,0,1 @ F,0,0,1,0,1.6666667,0,1 @ F,0,0,1,0,1.6666667,0,1 @ F,0,0,1,0,1.6666667,0,1 @ F,0,0,1,0,1.6666667,0,1 @ F,0,0,1,0,1.6666667,0,1 @ F,0,0,1,0,1.6666667,0,1 @ F,0,0,1,0,1.6666667,0,1 @ F,0,0,1,0,1.6666667,0,1 @ F,0,0,1,0,1.6666667,0,1 @ F,0,0,1,0,1.6666667,0,1 @ F,0,0,1,0,1.6666667,0,1 @ F,0,0,1,0,1.6666667,0,1 @ F,0,0,1,0,1.6666667,0,1 @ F,0,0,1,0,1.6666667,0,1" radius="5" unit="px" method="auto" mode="F" chamfer_steps="1" flexible="false" use_knot_distance="true" apply_no_radius="true" apply_with_radius="true" only_selected="false" hide_knots="false" />
    <inkscape:path-effect effect="fillet_chamfer" id="path-effect51" is_visible="true" lpeversion="1" nodesatellites_param="F,0,0,1,0,1.6666667,0,1 @ F,0,0,1,0,1.6666667,0,1 @ F,0,0,1,0,1.6666667,0,1 @ F,0,0,1,0,1.6666667,0,1 @ F,0,0,1,0,1.6666667,0,1 @ F,0,0,1,0,1.6666667,0,1 @ F,0,0,1,0,1.6666667,0,1 @ F,0,0,1,0,1.6666667,0,1 @ F,0,0,1,0,1.6666667,0,1 @ F,0,0,1,0,1.6666667,0,1 @ F,0,0,1,0,1.6666667,0,1 @ F,0,0,1,0,1.6666667,0,1 @ F,0,0,1,0,1.6666667,0,1 @ F,0,0,1,0,1.6666667,0,1 @ F,0,0,1,0,1.6666667,0,1 @ F,0,0,1,0,1.6666667,0,1 @ F,0,0,1,0,1.6666667,0,1 @ F,0,0,1,0,1.6666667,0,1 @ F,0,0,1,0,1.6666667,0,1 @ F,0,0,1,0,1.6666667,0,1 @ F,0,0,1,0,1.6666667,0,1 @ F,0,0,1,0,1.6666667,0,1 @ F,0,0,1,0,1.6666667,0,1 @ F,0,0,1,0,1.6666667,0,1 @ F,0,0,1,0,1.6666667,0,1 @ F,0,0,1,0,1.6666667,0,1 @ F,0,0,1,0,1.6666667,0,1 @ F,0,0,1,0,1.6666667,0,1 @ F,0,0,1,0,1.6666667,0,1 @ F,0,0,1,0,1.6666667,0,1 @ F,0,0,1,0,1.6666667,0,1 @ F,0,0,1,0,1.6666667,0,1 | F,0,0,1,0,1.6666667,0,1 @ F,0,0,1,0,1.6666667,0,1 @ F,0,0,1,0,1.6666667,0,1 @ F,0,0,1,0,1.6666667,0,1 @ F,0,0,1,0,1.6666667,0,1 @ F,0,0,1,0,1.6666667,0,1 @ F,0,0,1,0,1.6666667,0,1 @ F,0,0,1,0,1.6666667,0,1 @ F,0,0,1,0,1.6666667,0,1 @ F,0,0,1,0,1.6666667,0,1 @ F,0,0,1,0,1.6666667,0,1 @ F,0,0,1,0,1.6666667,0,1 @ F,0,0,1,0,1.6666667,0,1 @ F,0,0,1,0,1.6666667,0,1 @ F,0,0,1,0,1.6666667,0,1 @ F,0,0,1,0,1.6666667,0,1 @ F,0,0,1,0,1.6666667,0,1 @ F,0,0,1,0,1.6666667,0,1 @ F,0,0,1,0,1.6666667,0,1 @ F,0,0,1,0,1.6666667,0,1" radius="5" unit="px" method="auto" mode="F" chamfer_steps="1" flexible="false" use_knot_distance="true" apply_no_radius="true" apply_with_radius="true" only_selected="false" hide_knots="false" />
    <inkscape:path-effect effect="fillet_chamfer" id="path-effect8" is_visible="true" lpeversion="1" nodesatellites_param="F,0,0,1,0,5,0,1 @ F,0,0,1,0,5,0,1 @ F,0,0,1,0,2,0,1 @ F,0,0,1,0,5,0,1 @ F,0,0,1,0,5,0,1 @ F,0,0,1,0,2,0,1 @ F,0,0,1,0,5,0,1 @ F,0,0,1,0,5,0,1 @ F,0,0,1,0,2,0,1 @ F,0,0,1,0,5,0,1 @ F,0,0,1,0,5,0,1 @ F,0,0,1,0,2,0,1 @ F,0,0,1,0,5,0,1 @ F,0,0,1,0,5,0,1 @ F,0,0,1,0,2,0,1 @ F,0,0,1,0,5,0,1 @ F,0,0,1,0,5,0,1 @ F,0,0,1,0,2,0,1 | F,0,0,1,0,2,0,1 @ F,0,0,1,0,2,0,1 @ F,0,0,1,0,2,0,1 @ F,0,0,1,0,2,0,1 @ F,0,0,1,0,2,0,1 @ F,0,0,1,0,2,0,1" radius="0" unit="px" method="auto" mode="F" chamfer_steps="1" flexible="false" use_knot_distance="true" apply_no_radius="true" apply_with_radius="true" only_selected="false" hide_knots="false" />
    <inkscape:path-effect effect="fillet_chamfer" id="path-effect6" is_visible="true" lpeversion="1" nodesatellites_param="F,0,0,1,0,5,0,1 @ F,0,0,1,0,5,0,1 @ F,0,0,1,0,2,0,1 @ F,0,0,1,0,5,0,1 @ F,0,0,1,0,5,0,1 @ F,0,0,1,0,2,0,1 @ F,0,0,1,0,5,0,1 @ F,0,0,1,0,5,0,1 @ F,0,0,1,0,2,0,1 @ F,0,0,1,0,5,0,1 @ F,0,0,1,0,5,0,1 @ F,0,0,1,0,2,0,1 @ F,0,0,1,0,5,0,1 @ F,0,0,1,0,5,0,1 @ F,0,0,1,0,2,0,1 @ F,0,0,1,0,5,0,1 @ F,0,0,1,0,5,0,1 @ F,0,0,1,0,2,0,1 | F,0,0,1,0,2,0,1 @ F,0,0,1,0,2,0,1 @ F,0,0,1,0,2,0,1 @ F,0,0,1,0,2,0,1 @ F,0,0,1,0,2,0,1 @ F,0,0,1,0,2,0,1" radius="0" unit="px" method="auto" mode="F" chamfer_steps="1" flexible="false" use_knot_distance="true" apply_no_radius="true" apply_with_radius="true" only_selected="false" hide_knots="false" />
    <rect x="1484" y="1212" width="713.29645" height="66.585785" id="rect4" />
    <rect x="546" y="154" width="622.42786" height="225.99191" id="rect3" />
    <rect x="520" y="158" width="1342" height="222" id="rect2" />
    <rect x="444.06305" y="62.225395" width="691.93134" height="71.429596" id="rect1" />
    <inkscape:path-effect effect="fillet_chamfer" id="path-effect528" is_visible="true" lpeversion="1" nodesatellites_param="F,0,0,1,0,0,0,1 @ F,0,0,1,0,0,0,1 @ F,0,0,1,0,0,0,1 @ F,0,0,1,0,0,0,1 @ F,0,0,1,0,0,0,1 @ F,0,0,1,0,0,0,1 @ F,0,0,1,0,0,0,1 @ F,0,0,1,0,0,0,1 @ F,0,0,1,0,0,0,1 @ F,0,0,1,0,0,0,1 @ F,0,0,1,0,0,0,1 @ F,0,0,1,0,0,0,1 @ F,0,0,1,0,0,0,1 @ F,0,0,1,0,0,0,1 @ F,0,0,1,0,0,0,1 @ F,0,0,1,0,0,0,1 @ F,0,0,1,0,0,0,1 @ F,0,0,1,0,0,0,1 | F,0,0,1,0,0,0,1 @ F,0,0,1,0,0,0,1 @ F,0,0,1,0,0,0,1 @ F,0,0,1,0,0,0,1 @ F,0,0,1,0,0,0,1 @ F,0,0,1,0,0,0,1" radius="0" unit="px" method="auto" mode="F" chamfer_steps="1" flexible="false" use_knot_distance="true" apply_no_radius="true" apply_with_radius="true" only_selected="false" hide_knots="false" />
    <inkscape:path-effect effect="fillet_chamfer" id="path-effect526" is_visible="true" lpeversion="1" nodesatellites_param="F,0,0,1,0,0,0,1 @ F,0,0,1,0,0,0,1 @ F,0,0,1,0,0,0,1 @ F,0,0,1,0,0,0,1 @ F,0,0,1,0,0,0,1 @ F,0,0,1,0,0,0,1 @ F,0,0,1,0,0,0,1 @ F,0,0,1,0,0,0,1 @ F,0,0,1,0,0,0,1 @ F,0,0,1,0,0,0,1 @ F,0,0,1,0,0,0,1 @ F,0,0,1,0,0,0,1 @ F,0,0,1,0,0,0,1 @ F,0,0,1,0,0,0,1 @ F,0,0,1,0,0,0,1 @ F,0,0,1,0,0,0,1 @ F,0,0,1,0,0,0,1 @ F,0,0,1,0,0,0,1 | F,0,0,1,0,0,0,1 @ F,0,0,1,0,0,0,1 @ F,0,0,1,0,0,0,1 @ F,0,0,1,0,0,0,1 @ F,0,0,1,0,0,0,1 @ F,0,0,1,0,0,0,1" radius="0" unit="px" method="auto" mode="F" chamfer_steps="1" flexible="false" use_knot_distance="true" apply_no_radius="true" apply_with_radius="true" only_selected="false" hide_knots="false" />
    <inkscape:path-effect effect="fillet_chamfer" id="path-effect524" is_visible="true" lpeversion="1" nodesatellites_param="F,0,0,1,0,5,0,1 @ F,0,0,1,0,5,0,1 @ F,0,0,1,0,2,0,1 @ F,0,0,1,0,5,0,1 @ F,0,0,1,0,5,0,1 @ F,0,0,1,0,2,0,1 @ F,0,0,1,0,5,0,1 @ F,0,0,1,0,5,0,1 @ F,0,0,1,0,2,0,1 @ F,0,0,1,0,5,0,1 @ F,0,0,1,0,5,0,1 @ F,0,0,1,0,2,0,1 @ F,0,0,1,0,5,0,1 @ F,0,0,1,0,5,0,1 @ F,0,0,1,0,2,0,1 @ F,0,0,1,0,5,0,1 @ F,0,0,1,0,5,0,1 @ F,0,0,1,0,2,0,1 | F,0,0,1,0,2,0,1 @ F,0,0,1,0,2,0,1 @ F,0,0,1,0,2,0,1 @ F,0,0,1,0,2,0,1 @ F,0,0,1,0,2,0,1 @ F,0,0,1,0,2,0,1" radius="0" unit="px" method="auto" mode="F" chamfer_steps="1" flexible="false" use_knot_distance="true" apply_no_radius="true" apply_with_radius="true" only_selected="false" hide_knots="false" />
    <inkscape:path-effect effect="knot" id="path-effect419" is_visible="true" lpeversion="1" switcher_size="15" interruption_width="3" prop_to_stroke_width="true" add_stroke_width="inkscape_1.0_and_up" both="false" inverse_width="false" add_other_stroke_width="inkscape_1.0_and_up" crossing_points_vector="" />
    <inkscape:path-effect effect="tiling" id="path-effect413" is_visible="true" lpeversion="1" unit="px" seed="1;407239686" lpesatellites="" num_rows="3" num_cols="3" gapx="0" gapy="-57.73" offset="50" offset_type="false" scale="0" rotate="0" mirrorrowsx="false" mirrorrowsy="false" mirrorcolsx="false" mirrorcolsy="false" mirrortrans="false" shrink_interp="false" split_items="false" link_styles="false" interpolate_scalex="false" interpolate_scaley="true" interpolate_rotatex="false" interpolate_rotatey="true" random_scale="false" random_rotate="false" random_gap_y="false" random_gap_x="false" transformorigin="matrix(0.68732173,0,0,0.68732173,30.473674,6.5481034)" />
    <inkscape:path-effect effect="fillet_chamfer" id="path-effect524-7" is_visible="true" lpeversion="1" nodesatellites_param="F,0,0,1,0,5,0,1 @ F,0,0,1,0,5,0,1 @ F,0,0,1,0,2,0,1 @ F,0,0,1,0,5,0,1 @ F,0,0,1,0,5,0,1 @ F,0,0,1,0,2,0,1 @ F,0,0,1,0,5,0,1 @ F,0,0,1,0,5,0,1 @ F,0,0,1,0,2,0,1 @ F,0,0,1,0,5,0,1 @ F,0,0,1,0,5,0,1 @ F,0,0,1,0,2,0,1 @ F,0,0,1,0,5,0,1 @ F,0,0,1,0,5,0,1 @ F,0,0,1,0,2,0,1 @ F,0,0,1,0,5,0,1 @ F,0,0,1,0,5,0,1 @ F,0,0,1,0,2,0,1 | F,0,0,1,0,2,0,1 @ F,0,0,1,0,2,0,1 @ F,0,0,1,0,2,0,1 @ F,0,0,1,0,2,0,1 @ F,0,0,1,0,2,0,1 @ F,0,0,1,0,2,0,1" radius="0" unit="px" method="auto" mode="F" chamfer_steps="1" flexible="false" use_knot_distance="true" apply_no_radius="true" apply_with_radius="true" only_selected="false" hide_knots="false" />
    <rect x="1484" y="1212" width="1226.8706" height="63.757359" id="rect4-7" />
    <filter inkscape:label="Metallic Glass" inkscape:menu="Image Effects" inkscape:menu-tooltip="Adds a small scale graininess" style="color-interpolation-filters:sRGB" id="filter7" x="-0.11335456" y="-0.095117601" width="1.2284681" height="1.1920803">
      <feTurbulence type="fractalNoise" numOctaves="10" baseFrequency="0.02839452054794521 2.4670000000000001" seed="0" result="result0" id="feTurbulence6" />
      <feComposite in="SourceGraphic" in2="result4" operator="arithmetic" k1="-0.92391304" k2="1.0326087" k3="1.3586957" result="result2" id="feComposite6" k4="-0.97826087" />
      <feBlend result="result5" mode="darken" in="result2" in2="SourceGraphic" id="feBlend6" />
      <feComposite operator="in" result="fbSourceGraphic" id="feComposite7" in2="SourceGraphic" in="result5" />
      <feFlood id="feFlood43" result="flood" flood-opacity="0.75409836065573765" flood-color="rgb(255,255,255)" in="result6" />
      <feGaussianBlur id="feGaussianBlur43" result="blur" in="fbSourceGraphic" stdDeviation="0.10000000000000001" />
      <feOffset id="feOffset43" result="offset" in="blur" dx="0.20000000000000001" dy="0.25" preserveAlpha="false" />
      <feTurbulence id="feTurbulence1" type="fractalNoise" baseFrequency="0.067218543046357618" numOctaves="2" seed="82" result="result7" />
      <feBlend mode="overlay" id="feBlend3" in="flood" />
      <feComposite id="feComposite43" result="comp1" operator="out" in="flood" in2="offset" />
      <feComposite id="feComposite44" result="comp2" operator="atop" in="comp1" in2="fbSourceGraphic" />
      <feComposite id="feComposite1" operator="out" in2="result7" result="result9" />
      <feBlend mode="difference" id="feBlend2" result="result8" in2="result9" />
      <feComposite id="feComposite2" operator="over" />
    </filter>
    <radialGradient inkscape:collect="always" xlink:href="#linearGradient59" id="radialGradient44" cx="117.77643" cy="-81.420586" fx="117.77643" fy="-81.420586" r="95.570686" gradientTransform="matrix(0.68847159,-0.2751919,0.51853317,0.74212156,98.327591,-15.632417)" gradientUnits="userSpaceOnUse" />
    <linearGradient inkscape:collect="always" xlink:href="#linearGradient59" id="linearGradient44" x1="36.106567" y1="128.49094" x2="143.55957" y2="128.49094" gradientUnits="userSpaceOnUse" />


    <filter inkscape:collect="always" style="color-interpolation-filters:sRGB" id="filter2" x="-0.11124374" y="-0.093346381" width="1.2224875" height="1.1866928">
      <feGaussianBlur inkscape:collect="always" stdDeviation="5.2701717" id="feGaussianBlur2" />
    </filter>
    <radialGradient inkscape:collect="always" xlink:href="#linearGradient3" id="radialGradient3" cx="-187.31317" cy="5.2499352" fx="-187.31317" fy="5.2499352" r="19.078779" gradientTransform="matrix(1,0,0,0.4717321,0,2.7733722)" gradientUnits="userSpaceOnUse" />
    <linearGradient inkscape:collect="always" xlink:href="#linearGradient8" id="linearGradient2" gradientUnits="userSpaceOnUse" x1="14.148417" y1="27.506731" x2="14.148417" y2="148.32968" />
  </defs>
  <g inkscape:label="Logo" inkscape:groupmode="layer" id="Logo" inkscape:highlight-color="#2c8677" onmouseover="">
    <g id="Main" style="opacity:1;filter:url(#filter7)" transform="translate(78.252011,-2.185088)" inkscape:label="Main">
      <path style="opacity:0.297386;mix-blend-mode:normal;fill:#72efd8;fill-opacity:1;stroke:none;stroke-width:8.33333;stroke-linecap:round;stroke-linejoin:round;stroke-dasharray:none;stroke-opacity:1;paint-order:stroke fill markers;filter:url(#filter2)" d="m -21.468716,21.18752 5.541958,9.387975 a 2.8866261,2.8866261 29.444501 0 0 2.513849,1.419055 l 10.9010649,-0.105897 a 2.8867634,2.8867634 29.44332 0 1 2.51390817,1.41902 l 5.54252763,9.388056 a 2.8867634,2.8867634 29.44332 0 0 2.5139082,1.41902 L 18.959565,44.008852 a 2.8867645,2.8867645 29.443312 0 1 2.513909,1.419019 l 5.542525,9.388048 a 2.8867642,2.8867642 29.44331 0 0 2.513909,1.419019 L 40.430975,56.12904 a 2.8866261,2.8866261 29.444497 0 1 2.513849,1.419054 l 5.54196,9.387978 a 2.8866279,2.8866279 29.444512 0 0 2.513849,1.419055 l 10.901749,-0.105899 a 2.886628,2.886628 29.444511 0 1 2.513849,1.419055 l 5.54196,9.387977 a 2.8868406,2.8868406 89.444805 0 1 0.02797,2.886638 l -5.359189,9.493959 a 2.8866218,2.8866218 89.442925 0 0 0.02807,2.886583 l 5.542458,9.38741 a 2.8866212,2.8866212 89.44293 0 1 0.02807,2.88658 l -5.359188,9.49396 a 2.8867885,2.8867885 149.44373 0 1 -2.485877,1.46758 l -10.901062,0.1059 a 2.886867,2.886867 149.4444 0 0 -2.485911,1.46756 l -5.359121,9.49332 a 2.8868646,2.8868646 149.44442 0 1 -2.485911,1.46756 l -10.901061,0.10589 a 2.886864,2.886864 149.44442 0 0 -2.485911,1.46756 l -5.359118,9.49332 a 2.8868663,2.8868663 149.4444 0 1 -2.485911,1.46756 l -10.9010646,0.1059 a 2.8867877,2.8867877 149.44372 0 0 -2.4858768,1.46758 l -5.3591849,9.49396 a 2.8866246,2.8866246 149.44513 0 1 -2.4858776,1.4675 l -10.9017511,0.10537 a 2.8868698,2.8868698 29.445198 0 1 -2.513885,-1.41911 l -5.541887,-9.38734 a 2.8868706,2.8868706 29.445205 0 0 -2.513885,-1.41911 l -10.901063,0.10536 a 2.8869284,2.8869284 29.444708 0 1 -2.51391,-1.4191 l -5.542525,-9.38804 a 2.886624,2.886624 89.444282 0 1 -0.028,-2.88658 l 5.359115,-9.49332 a 2.8867643,2.8867643 89.445488 0 0 -0.02794,-2.88661 l -5.541957,-9.38799 a 2.8869041,2.8869041 89.444287 0 1 -0.028,-2.88665 l 5.35855,-9.493238 a 2.8869028,2.8869028 89.444276 0 0 -0.028,-2.886653 l -5.541958,-9.387976 a 2.8868426,2.8868426 89.444793 0 1 -0.02797,-2.886638 l 5.359186,-9.493965 a 2.8866227,2.8866227 89.442903 0 0 -0.02807,-2.886583 l -5.542454,-9.387401 a 2.8866214,2.8866214 89.442915 0 1 -0.02807,-2.886583 l 5.359185,-9.493955 a 2.8868417,2.8868417 89.444808 0 0 -0.02797,-2.886639 l -5.541957,-9.387976 a 2.8869031,2.8869031 89.44428 0 1 -0.028,-2.886654 l 5.35855,-9.493238 a 2.8867238,2.8867238 149.44321 0 1 2.48585,-1.467598 l 10.901753,-0.105899 a 2.8866276,2.8866276 29.444515 0 1 2.513849,1.419056 z m 19.1962769,35.355665 -10.9010659,0.105898 a 2.886787,2.886787 149.44373 0 0 -2.485877,1.467584 l -5.359185,9.493955 a 2.8867599,2.8867599 89.444105 0 0 0.02801,2.886618 l 5.541887,9.387331 a 2.8869,2.8869 89.442901 0 1 0.02807,2.886652 l -5.358618,9.493884 a 2.8869829,2.8869829 89.443613 0 0 0.02803,2.886673 l 5.541959,9.38799 a 2.8867632,2.8867632 89.445501 0 1 0.02794,2.88661 l -5.359116,9.49331 a 2.886625,2.886625 89.444314 0 0 0.028,2.88658 l 5.542527,9.38806 a 2.8867621,2.8867621 29.44332 0 0 2.513908,1.41902 l 10.9010649,-0.1059 a 2.886866,2.886866 149.4444 0 0 2.48591088,-1.46756 l 5.35911692,-9.49332 a 2.886625,2.886625 89.444296 0 0 -0.027997,-2.88658 l -5.54252594,-9.38805 a 2.8867042,2.8867042 89.443615 0 1 -0.028032,-2.8866 L 6.0507443,94.891376 A 2.8866251,2.8866251 149.44511 0 1 8.5366214,93.423873 L 19.437684,93.318502 a 2.8869245,2.8869245 29.444706 0 1 2.513909,1.419101 l 5.542528,9.388057 a 2.8867626,2.8867626 29.443315 0 0 2.513908,1.41902 l 10.901063,-0.1059 a 2.8867876,2.8867876 149.44372 0 0 2.485877,-1.46758 l 5.359189,-9.493965 a 2.8867595,2.8867595 89.444104 0 0 -0.02801,-2.886618 l -5.54189,-9.387334 A 2.8868702,2.8868702 29.445195 0 0 40.670376,80.784168 L 29.768625,80.88954 a 2.8867883,2.8867883 29.445899 0 1 -2.51385,-1.419136 L 21.712818,70.082429 A 2.8866258,2.8866258 29.444503 0 0 19.198969,68.663374 L 8.2979048,68.769271 A 2.8867646,2.8867646 29.44331 0 1 5.7839961,67.350252 L 0.24146957,57.962204 A 2.8867644,2.8867644 29.443308 0 0 -2.2724391,56.543185 Z" inkscape:original-d="m -22.315977,19.752275 7.23648,12.258465 14.234241,-0.138277 7.2371678,12.258476 14.2342412,-0.138277 7.237167,12.258466 14.234243,-0.138278 7.236482,12.258466 14.234925,-0.138277 7.236482,12.258465 -6.997767,12.396747 7.237168,12.257789 -6.997766,12.39674 -14.234238,0.13828 -6.997767,12.39606 -14.234237,0.13827 -6.997764,12.39606 -14.2342407,0.13828 -6.9977623,12.39674 -14.234929,0.13759 -7.236479,-12.25778 -14.234241,0.13758 -7.237167,-12.25846 6.997761,-12.39606 -7.236477,-12.25847 6.997074,-12.396057 -7.23648,-12.258464 6.997762,-12.396753 -7.237166,-12.257779 6.997763,-12.396743 -7.236479,-12.258466 6.997074,-12.396056 z m 21.710126,36.77472 -14.234242,0.138278 -6.997763,12.396743 7.236479,12.257779 -6.997074,12.39674 7.236479,12.258475 -6.997762,12.39605 7.237167,12.25848 L 0.111674,130.49126 7.1094365,118.0952 -0.12773,105.83673 6.8700326,93.439982 21.104273,93.302393 28.341441,105.56087 42.57568,105.42259 49.573447,93.025841 42.336965,80.768059 28.102036,80.905649 20.865557,68.647184 6.6313167,68.785461 Z" inkscape:path-effect="#path-effect14" id="Glow" inkscape:label="Glow" />
      <path style="baseline-shift:baseline;display:inline;overflow:visible;opacity:1;vector-effect:none;fill:url(#linearGradient2);stroke-linecap:round;stroke-linejoin:round;paint-order:stroke markers fill;enable-background:accumulate;stop-color:#000000;stop-opacity:1" d="m -21.468716,21.18752 5.541958,9.387975 a 2.8866261,2.8866261 29.444501 0 0 2.513849,1.419055 l 10.9010649,-0.105897 a 2.8867634,2.8867634 29.44332 0 1 2.51390817,1.41902 l 5.54252763,9.388056 a 2.8867634,2.8867634 29.44332 0 0 2.5139082,1.41902 L 18.959565,44.008852 a 2.8867645,2.8867645 29.443312 0 1 2.513909,1.419019 l 5.542525,9.388048 a 2.8867642,2.8867642 29.44331 0 0 2.513909,1.419019 L 40.430975,56.12904 a 2.8866261,2.8866261 29.444497 0 1 2.513849,1.419054 l 5.54196,9.387978 a 2.8866279,2.8866279 29.444512 0 0 2.513849,1.419055 l 10.901749,-0.105899 a 2.886628,2.886628 29.444511 0 1 2.513849,1.419055 l 5.54196,9.387977 a 2.8868406,2.8868406 89.444805 0 1 0.02797,2.886638 l -5.359189,9.493959 a 2.8866218,2.8866218 89.442925 0 0 0.02807,2.886583 l 5.542458,9.38741 a 2.8866212,2.8866212 89.44293 0 1 0.02807,2.88658 l -5.359188,9.49396 a 2.8867885,2.8867885 149.44373 0 1 -2.485877,1.46758 l -10.901062,0.1059 a 2.886867,2.886867 149.4444 0 0 -2.485911,1.46756 l -5.359121,9.49332 a 2.8868646,2.8868646 149.44442 0 1 -2.485911,1.46756 l -10.901061,0.10589 a 2.886864,2.886864 149.44442 0 0 -2.485911,1.46756 l -5.359118,9.49332 a 2.8868663,2.8868663 149.4444 0 1 -2.485911,1.46756 l -10.9010646,0.1059 a 2.8867877,2.8867877 149.44372 0 0 -2.4858768,1.46758 l -5.3591849,9.49396 a 2.8866246,2.8866246 149.44513 0 1 -2.4858776,1.4675 l -10.9017511,0.10537 a 2.8868698,2.8868698 29.445198 0 1 -2.513885,-1.41911 l -5.541887,-9.38734 a 2.8868706,2.8868706 29.445205 0 0 -2.513885,-1.41911 l -10.901063,0.10536 a 2.8869284,2.8869284 29.444708 0 1 -2.51391,-1.4191 l -5.542525,-9.38804 a 2.886624,2.886624 89.444282 0 1 -0.028,-2.88658 l 5.359115,-9.49332 a 2.8867643,2.8867643 89.445488 0 0 -0.02794,-2.88661 l -5.541957,-9.38799 a 2.8869041,2.8869041 89.444287 0 1 -0.028,-2.88665 l 5.35855,-9.493238 a 2.8869028,2.8869028 89.444276 0 0 -0.028,-2.886653 l -5.541958,-9.387976 a 2.8868426,2.8868426 89.444793 0 1 -0.02797,-2.886638 l 5.359186,-9.493965 a 2.8866227,2.8866227 89.442903 0 0 -0.02807,-2.886583 l -5.542454,-9.387401 a 2.8866214,2.8866214 89.442915 0 1 -0.02807,-2.886583 l 5.359185,-9.493955 a 2.8868417,2.8868417 89.444808 0 0 -0.02797,-2.886639 l -5.541957,-9.387976 a 2.8869031,2.8869031 89.44428 0 1 -0.028,-2.886654 l 5.35855,-9.493238 a 2.8867238,2.8867238 149.44321 0 1 2.48585,-1.467598 l 10.901753,-0.105899 a 2.8866276,2.8866276 29.444515 0 1 2.513849,1.419056 z m 19.1962769,35.355665 -10.9010659,0.105898 a 2.886787,2.886787 149.44373 0 0 -2.485877,1.467584 l -5.359185,9.493955 a 2.8867599,2.8867599 89.444105 0 0 0.02801,2.886618 l 5.541887,9.387331 a 2.8869,2.8869 89.442901 0 1 0.02807,2.886652 l -5.358618,9.493884 a 2.8869829,2.8869829 89.443613 0 0 0.02803,2.886673 l 5.541959,9.38799 a 2.8867632,2.8867632 89.445501 0 1 0.02794,2.88661 l -5.359116,9.49331 a 2.886625,2.886625 89.444314 0 0 0.028,2.88658 l 5.542527,9.38806 a 2.8867621,2.8867621 29.44332 0 0 2.513908,1.41902 l 10.9010649,-0.1059 a 2.886866,2.886866 149.4444 0 0 2.48591088,-1.46756 l 5.35911692,-9.49332 a 2.886625,2.886625 89.444296 0 0 -0.027997,-2.88658 l -5.54252594,-9.38805 a 2.8867042,2.8867042 89.443615 0 1 -0.028032,-2.8866 L 6.0507443,94.891376 A 2.8866251,2.8866251 149.44511 0 1 8.5366214,93.423873 L 19.437684,93.318502 a 2.8869245,2.8869245 29.444706 0 1 2.513909,1.419101 l 5.542528,9.388057 a 2.8867626,2.8867626 29.443315 0 0 2.513908,1.41902 l 10.901063,-0.1059 a 2.8867876,2.8867876 149.44372 0 0 2.485877,-1.46758 l 5.359189,-9.493965 a 2.8867595,2.8867595 89.444104 0 0 -0.02801,-2.886618 l -5.54189,-9.387334 A 2.8868702,2.8868702 29.445195 0 0 40.670376,80.784168 L 29.768625,80.88954 a 2.8867883,2.8867883 29.445899 0 1 -2.51385,-1.419136 L 21.712818,70.082429 A 2.8866258,2.8866258 29.444503 0 0 19.198969,68.663374 L 8.2979048,68.769271 A 2.8867646,2.8867646 29.44331 0 1 5.7839961,67.350252 L 0.24146957,57.962204 A 2.8867644,2.8867644 29.443308 0 0 -2.2724391,56.543185 Z" id="Shape" inkscape:label="Shape" onmouseover="" />
    </g>
    <g id="Lighting" inkscape:label="Lighting" transform="translate(242.00002,21.333326)">
      <path id="shine1" style="opacity:1;mix-blend-mode:overlay;fill:url(#radialGradient44);fill-rule:evenodd;stroke-width:2.82817;stroke-linecap:square;paint-order:markers fill stroke" d="m 115.84778,-167.96051 -22.45618,-3.18991 a 6.0193946,4.3532023 4.0293722 0 0 -5.594217,1.40852 l -14.139236,12.40412 a 6.0197685,4.3534726 4.0293722 0 0 -0.890537,4.28062 l 8.315388,15.59479 a 6.0196404,4.35338 4.0293722 0 1 -0.890538,4.28061 l -14.140574,12.40392 a 6.019181,4.3530477 4.0293722 0 0 -0.890537,4.28062 l 8.315601,15.59382 a 6.0191838,4.3530498 4.0293722 0 1 -0.890537,4.280621 l -14.139449,12.405078 a 6.0196423,4.3533814 4.0293722 0 0 -0.890538,4.280618 l 2.168342,4.067338 c 24.541471,-11.004932 44.725502,-43.272755 70.627312,-43.272755 32.99874,0.026 66.63906,52.833736 113.00782,42.312457 1.67938,-0.381059 3.28918,-0.785391 4.9202,-1.182653 l -7.19166,-13.490019 a 6.0191909,4.3530549 4.0293722 0 0 -4.70502,-2.872292 l -22.45484,-3.189713 a 6.0194789,4.3532632 4.0293722 0 1 -4.70368,-2.87209 l -8.31538,-15.59479 a 6.0194794,4.3532635 4.0293722 0 0 -4.70524,-2.87133 l -22.45462,-3.19068 a 6.0194772,4.353262 4.0293722 0 1 -4.70389,-2.87113 l -8.31539,-15.59479 a 6.0194772,4.353262 4.0293722 0 0 -4.70502,-2.87229 l -22.45484,-3.18971 a 6.0191908,4.3530548 4.0293722 0 1 -4.70368,-2.8721 l -8.31538,-15.59479 a 6.019194,4.3530572 4.0293722 0 0 -4.70368,-2.87209 z" transform="matrix(0.47062818,-0.09763492,0.10444911,0.65405771,-224.70903,117.41666)" inkscape:label="Shine 1" />
      <path d="m -187.73114,-3.7499923 -10.90169,0.1061198 a 2.8867238,2.8867237 84.873738 0 0 -2.48568,1.4674479 l -0.86849,1.5384115 -4.40495,7.8040366 a 19.955952,9 0 0 0 19.49805,7.0839845 19.955952,9 0 0 0 18.65951,-5.8600261 l -8.92709,0.086588 a 2.886626,2.886626 78.134209 0 1 -2.51367,-1.4192708 l -0.0833,-0.1419271 a 2.886626,2.886626 0 0 1 -6.5e-4,0 l -5.45834,-9.246094 a 2.8866276,2.8866275 85.276133 0 0 -1.5931,-1.2779948 2.8866276,2.8866275 85.276133 0 0 -0.72721,-0.1367187 2.8866276,2.8866275 85.276133 0 0 -0.19336,-0.00456 z" style="opacity:1;mix-blend-mode:soft-light;fill:url(#radialGradient3);fill-rule:evenodd;stroke-width:2.82817;stroke-linecap:square;paint-order:markers fill stroke" id="shine2" inkscape:label="Shine 2" />
      <path id="bloom1" style="opacity:1;mix-blend-mode:overlay;fill:url(#linearGradient44);fill-rule:evenodd;stroke:none;stroke-width:2.5;stroke-linecap:square;paint-order:markers fill stroke" d="m 79.4222,103.89844 a 108.48647,47.611858 0 0 0 -0.775391,0.0221 2.8867042,2.8867042 0 0 0 0.32487,1.16667 l 5.542318,9.38802 a 2.886625,2.886625 0 0 1 0.02799,2.88672 l -5.359375,9.49284 a 2.886866,2.886866 0 0 1 -2.485677,1.46745 l -10.901042,0.10612 a 2.8867621,2.8867621 0 0 1 -2.513672,-1.41862 l -5.542969,-9.38867 a 2.886625,2.886625 0 0 1 -0.02799,-2.88607 l 5.359375,-9.49349 a 2.8867632,2.8867632 0 0 0 0.294922,-0.77018 108.48647,47.611858 0 0 0 -25.853517,3.13672 l 4.298829,7.28125 a 2.8867643,2.8867643 0 0 1 0.02799,2.88671 l -5.359375,9.49284 a 2.886624,2.886624 0 0 0 0.028,2.88672 l 5.542318,9.38802 a 2.8869284,2.8869284 0 0 0 2.514323,1.41927 l 10.901042,-0.10547 a 2.8868706,2.8868706 0 0 1 2.513672,1.41928 l 5.541667,9.38737 a 2.8868698,2.8868698 0 0 0 2.514322,1.41927 l 10.901693,-0.10547 a 2.8866246,2.8866246 0 0 0 2.485678,-1.46745 l 5.359375,-9.49414 a 2.8867877,2.8867877 0 0 1 2.485677,-1.46745 l 10.901042,-0.10612 a 2.8868663,2.8868663 0 0 0 2.486325,-1.46745 l 5.35872,-9.49349 a 2.886864,2.886864 0 0 1 2.48568,-1.46744 l 10.90169,-0.10612 a 2.8868646,2.8868646 0 0 0 2.48568,-1.46745 l 5.35872,-9.49349 a 2.886867,2.886867 0 0 1 2.48633,-1.46745 l 10.90104,-0.10547 a 2.8867885,2.8867885 0 0 0 2.48568,-1.4681 l 0.44141,-0.7819 A 108.48647,47.611858 0 0 0 79.4222,103.89844 Z" transform="translate(-242.00001,-21.333334)" inkscape:label="Bloom" />
    </g>
  </g>
  <metadata id="metadata">
    <rdf:RDF>
      <cc:Work rdf:about="">
        <dc:title>0xFF Icon dark</dc:title>
      </cc:Work>
    </rdf:RDF>
  </metadata>
</svg>
